<svg width="34" height="62" viewBox="0 0 34 62" fill="none" xmlns="http://www.w3.org/2000/svg">
<path d="M30.7775 61.5547C30.4773 61.5548 30.1801 61.4958 29.9027 61.3811C29.6254 61.2663 29.3734 61.0981 29.1611 60.8859L0.994258 32.7175C0.565858 32.289 0.325195 31.7079 0.325195 31.1019C0.325195 30.496 0.565858 29.9149 0.994258 29.4863L29.1611 1.31797C29.3733 1.1057 29.6251 0.937307 29.9024 0.822392C30.1796 0.707477 30.4768 0.648295 30.7769 0.648224C31.077 0.648153 31.3742 0.707196 31.6515 0.82198C31.9288 0.936764 32.1808 1.10504 32.3931 1.31721C32.6053 1.52937 32.7737 1.78127 32.8886 2.05851C33.0035 2.33576 33.0627 2.63292 33.0628 2.93304C33.0629 3.23315 33.0038 3.53034 32.889 3.80764C32.7743 4.08494 32.606 4.33692 32.3938 4.54918L5.84184 31.1012L32.3938 57.6532C32.7136 57.9728 32.9314 58.38 33.0197 58.8234C33.1079 59.2669 33.0627 59.7265 32.8896 60.1442C32.7166 60.5619 32.4235 60.9188 32.0476 61.1699C31.6716 61.421 31.2296 61.5549 30.7775 61.5547Z" fill="#F9F9F9"/>
</svg>
