<svg width="22" height="39" viewBox="0 0 22 39" fill="none" xmlns="http://www.w3.org/2000/svg">
<path d="M19.9144 38.7199C19.7202 38.72 19.5278 38.6829 19.3484 38.6107C19.1689 38.5385 19.0059 38.4326 18.8685 38.2992L0.642884 20.5804C0.365684 20.3108 0.209961 19.9453 0.209961 19.5641C0.209961 19.183 0.365684 18.8174 0.642884 18.5478L18.8685 0.829036C19.0058 0.695515 19.1688 0.589588 19.3481 0.517303C19.5275 0.445018 19.7198 0.40779 19.914 0.407745C20.1082 0.407701 20.3005 0.444841 20.4799 0.517044C20.6594 0.589247 20.8224 0.695099 20.9598 0.828557C21.0971 0.962016 21.2061 1.12047 21.2804 1.29486C21.3548 1.46926 21.3931 1.65618 21.3931 1.84497C21.3932 2.03375 21.355 2.22069 21.2807 2.39512C21.2064 2.56955 21.0975 2.72805 20.9602 2.86157L3.77955 19.5636L20.9602 36.2657C21.1672 36.4667 21.3081 36.7229 21.3652 37.0018C21.4223 37.2808 21.393 37.5699 21.2811 37.8326C21.1691 38.0953 20.9795 38.3199 20.7362 38.4778C20.4929 38.6358 20.2069 38.72 19.9144 38.7199V38.7199Z" fill="#F9F9F9"/>
</svg>
